<svg xmlns="http://www.w3.org/2000/svg" viewBox="0 0 680 285" role="img" aria-labelledby="title desc">
  <title id="title">REDES-IA logo</title>
  <desc id="desc">Bridge logo for REDES-IA, connecting social research dots with AI governance squares.</desc>
  <defs>
    <linearGradient id="archGradient" x1="0" y1="0" x2="1" y2="0">
      <stop offset="0%" stop-color="#527D8A"/>
      <stop offset="100%" stop-color="#9DC4B6"/>
    </linearGradient>
  </defs>
  
  <g transform="translate(65 35) scale(0.78)">
<circle cx="0" cy="48" r="8" fill="#3C5D72"/>
<circle cx="20" cy="20" r="6" fill="#527D8A"/>
<circle cx="30" cy="62" r="5" fill="#6E9A86"/>
<circle cx="48" cy="38" r="9" fill="#9DC4B6"/>
<circle cx="68" cy="12" r="7" fill="#A8662A"/>
<circle cx="82" cy="55" r="5" fill="#B7655D"/>
<circle cx="98" cy="28" r="6" fill="#D9B24C"/>
<circle cx="112" cy="48" r="7" fill="#93B5C4"/>
<circle cx="134" cy="14" r="5" fill="#DCC1A9"/>
<circle cx="145" cy="70" r="4" fill="#D4998F"/>
<path d="M170 86 C250 -10 415 -4 635 80" fill="none" stroke="url(#archGradient)" stroke-width="16" stroke-linecap="round"/>
<line x1="245" y1="49.3" x2="245" y2="110" stroke="#93B5C4" stroke-width="2" opacity="0.62"/>
<line x1="285" y1="46.0" x2="285" y2="110" stroke="#93B5C4" stroke-width="2" opacity="0.58"/>
<line x1="325" y1="42.7" x2="325" y2="110" stroke="#93B5C4" stroke-width="2" opacity="0.54"/>
<line x1="365" y1="39.3" x2="365" y2="110" stroke="#93B5C4" stroke-width="2" opacity="0.50"/>
<line x1="405" y1="36.0" x2="405" y2="110" stroke="#93B5C4" stroke-width="2" opacity="0.46"/>
<line x1="445" y1="39.3" x2="445" y2="110" stroke="#93B5C4" stroke-width="2" opacity="0.42"/>
<line x1="485" y1="42.7" x2="485" y2="110" stroke="#93B5C4" stroke-width="2" opacity="0.38"/>
<line x1="525" y1="46.0" x2="525" y2="110" stroke="#93B5C4" stroke-width="2" opacity="0.34"/>
<line x1="565" y1="49.3" x2="565" y2="110" stroke="#93B5C4" stroke-width="2" opacity="0.30"/>
<rect x="470" y="20" width="12" height="12" rx="2.5" fill="#3C5D72"/>
<rect x="510" y="36" width="14" height="14" rx="2.5" fill="#6E9A86"/>
<rect x="552" y="16" width="10" height="10" rx="2.5" fill="#B7655D"/>
<rect x="494" y="72" width="15" height="15" rx="2.5" fill="#527D8A"/>
<rect x="540" y="84" width="12" height="12" rx="2.5" fill="#D9B24C"/>
<rect x="582" y="60" width="11" height="11" rx="2.5" fill="#DCC1A9"/>
<rect x="620" y="88" width="9" height="9" rx="2.5" fill="#93B5C4"/>
</g><g transform="translate(80 225) scale(0.78)">
<text x="0" y="0" font-family="Inter, Aptos, Avenir Next, Helvetica Neue, Arial, sans-serif" font-size="86" font-weight="700" letter-spacing="12" fill="#3C5D72">REDES-</text>
<text x="484" y="0" font-family="Inter, Aptos, Avenir Next, Helvetica Neue, Arial, sans-serif" font-size="86" font-weight="700" letter-spacing="8" fill="#6E9A86">IA</text>
</g>
</svg>
